<svg xmlns:x="&amp;ns_extend;" xmlns:i="&amp;ns_ai;" xmlns:graph="&amp;ns_graphs;" xmlns="http://www.w3.org/2000/svg" xmlns:xlink="http://www.w3.org/1999/xlink" version="1.1" id="Layer_1" x="0px" y="0px" viewBox="0 0 315 314.7" style="enable-background:new 0 0 315 314.7;" xml:space="preserve">
      <style type="text/css">.st0{fill:#E9711B;}</style>
    <metadata>
              <sfw>
                      <slices/>
            <sliceSourceBounds bottomLeftOrigin="true" height="314.7" width="315" x="-57.5" y="-257.35"/>
                  </sfw>
          </metadata>
    <g id="color_index_0" fill="#e9711b">
              <path d="M244.74,273.52v6.78l-48.5,29.9c2.73-0.69,5.44-1.45,8.12-2.29l40.38-24.89l4.31,2.65&#9;&#9;c2.35-1.68,4.66-3.43,6.91-5.24L244.74,273.52z"/>
        <path d="M89.75,286.46v6.78l-5.79,3.57c0.79,0.42,1.59,0.83,2.4,1.24l3.4-2.09l17.73,10.93&#9;&#9;c8.21,2.75,16.73,4.84,25.48,6.21L89.75,286.46z"/>
        <path d="M30.37,250.15l59.38-36.61l47.15,29.06v6.98l-47.15-29.06v6.78L37.5,259.52c0.51,0.6,1.02,1.19,1.53,1.77&#9;&#9;l50.72-31.27l47.15,29.06v6.98l-47.15-29.06v6.78l-42.49,26.2c0.57,0.56,1.14,1.11,1.72,1.66l40.78-25.14l47.15,29.06v6.98&#9;&#9;L89.75,253.5v6.78l-31.58,19.46c0.64,0.52,1.27,1.03,1.92,1.54l29.66-18.28l47.15,29.06v6.98l-47.15-29.06v6.78l-19.4,11.96&#9;&#9;c0.71,0.47,1.42,0.94,2.14,1.4l17.26-10.64l47.15,29.06v5.12c1.92,0.25,3.85,0.47,5.79,0.65v-13.19l24.51-15.11l12.01,7.41v6.99&#9;&#9;L167.2,293v6.78l-23.7,14.61c1.32,0.12,2.64,0.22,3.97,0.3l19.73-12.16l12.01,7.41v3.59c2.06-0.28,4.11-0.61,6.15-0.97v-9.4&#9;&#9;l59.38-36.61l16.03,9.88c2.12-1.84,4.18-3.73,6.19-5.68l-22.22-13.7v6.78l-59.38,36.61v-13.77l59.38-36.61l26.53,16.36&#9;&#9;c1.9-1.98,3.74-4.01,5.53-6.09l-32.07-19.76v6.78l-59.38,36.61v-13.77l59.38-36.61l35.9,22.13c1.69-2.12,3.32-4.28,4.91-6.48&#9;&#9;l-40.81-25.15v6.78l-59.38,36.61v-13.77l59.38-36.61l44.19,27.24C305.4,219.43,315,189.59,315,157.5C315,70.52,244.48,0,157.5,0&#9;&#9;S0,70.52,0,157.5c0,34.78,11.28,66.93,30.37,92.99V250.15z M167.2,121.12l47.15,29.06v6.98l-47.15-29.06v6.78l-29.21,18.01&#9;&#9;l-11.17-6.88L167.2,121.12z M124.62,144.65l-11.17-6.88l53.74-33.13l47.15,29.06v6.98l-47.15-29.06v6.78L124.62,144.65z&#9;&#9; M140.2,154.25l27-16.65l47.15,29.06v6.98l-47.15-29.06v6.78l-24.51,15.11v-10.69L140.2,154.25z M211.25,181.24l-5.66,3.49&#9;&#9;l-38.38-23.65v6.78l-24.51,15.11v-13.77l24.51-15.11L211.25,181.24z M179.21,283.89l-12.01-7.4v6.78l-24.51,15.11v-13.77&#9;&#9;l24.51-15.11l12.01,7.41V283.89z M179.21,267.38l-12.01-7.4v6.78l-24.51,15.11V268.1l24.51-15.11l12.01,7.41V267.38z M179.21,250.9&#9;&#9;l-12.01-7.4v6.78l-24.51,15.11v-13.77l24.51-15.11l12.01,7.41V250.9z M179.21,234.42l-12.01-7.4v6.78l-24.51,15.11v-13.77&#9;&#9;l24.51-15.11l12.01,7.41V234.42z M179.21,217.93l-12.01-7.4v6.78l-24.51,15.11v-13.77l24.51-15.11l12.01,7.41V217.93z&#9;&#9; M179.21,200.98v0.46l-12.01-7.4v6.78l-24.51,15.11v-13.77l24.51-15.11l17.3,10.67L179.21,200.98z M167.2,177.56v6.78l-24.51,15.11&#9;&#9;v-13.77l24.51-15.11l30.67,18.91l-5.67,3.49L167.2,177.56z M291.89,236.64l-47.15-29.06v6.78l-59.38,36.61V237.2l59.38-36.61&#9;&#9;l47.15,29.06V236.64z M291.89,220.16l-47.15-29.06v6.78l-59.38,36.61v-13.77l59.38-36.61l47.15,29.06V220.16z M291.89,196.69v6.98&#9;&#9;l-47.15-29.06v6.78L185.36,218v-13.77l59.38-36.61L291.89,196.69z M107.82,108.27l59.38-36.61l47.15,29.06v6.98L167.2,78.66v6.78&#9;&#9;l-59.38,36.61V108.27z M107.82,124.76l59.38-36.61l47.15,29.06v6.98L167.2,95.14v6.78l-55.95,34.49l-3.44-2.12V124.76z&#9;&#9; M30.37,167.73l59.38-36.61l47.15,29.06v6.98l-47.15-29.06v6.78l-59.38,36.61V167.73z M30.37,184.21l59.38-36.61l47.15,29.06v6.98&#9;&#9;l-47.15-29.06v6.78l-59.38,36.61V184.21z M30.37,200.69l59.38-36.61l47.15,29.06v6.98l-47.15-29.06v6.78l-59.38,36.61V200.69z&#9;&#9; M30.37,217.18l59.38-36.61l47.15,29.06v6.98l-47.15-29.06v6.78l-59.38,36.61V217.18z M30.37,233.66l59.38-36.61l47.15,29.06v6.98&#9;&#9;l-47.15-29.06v6.78l-59.38,36.61V233.66z"/>
        <path d="M167.2,314.7c2.49-0.15,4.96-0.36,7.41-0.63l-7.41-4.57V314.7z"/>
          </g>
  </svg>